<svg version="1.2" xmlns="http://www.w3.org/2000/svg" viewBox="0 0 34 37" width="34" height="37"><style>tspan{white-space:pre}.a{fill:#5cc2ac}.b{fill:#38396a}.c{fill:#fefefe}.d{font-size: 5px;line-height: 5px;text-transform: uppercase;fill: #ffffff;font-weight: 500;font-family: "Parkinsans"}</style><path class="a" d="m27.6 12.7l-3-3-0.6 0.6 2.4 2.4-2.4 2.5 0.6 0.6z"/><path class="b" d="m26.1 36.5h-18.8c-4 0-7.2-3.3-7.2-7.2v-17.6c0-3.9 3.2-7.1 7.2-7.1h18.8c3.9 0 7.2 3.2 7.2 7.1v17.6c0 3.9-3.3 7.2-7.2 7.2z"/><path class="a" d="m7 9.7h-4.2c-1.5 0-2.7-1.2-2.7-2.7v-3.8c0-1.5 1.2-2.7 2.7-2.7h4.2c1.5 0 2.7 1.2 2.7 2.7v3.8c0 1.5-1.2 2.7-2.7 2.7z"/><path fill-rule="evenodd" class="c" d="m20.2 28.8q-3.6 0-6.1-2.4-2.5-2.4-2.5-5.9 0-3.4 2.5-5.8 2.5-2.4 6.1-2.4 3.6 0 6.1 2.4 2.5 2.4 2.5 5.8 0 3.5-2.5 5.9-2.5 2.4-6.1 2.4zm0-0.9q3.2 0 5.4-2.1 2.3-2.2 2.3-5.3 0-3-2.3-5.2-2.2-2.2-5.4-2.2-3.2 0-5.4 2.2-2.3 2.2-2.3 5.2 0 3.1 2.3 5.3 2.2 2.1 5.4 2.1zm-0.4-7.2v-4.6h0.9v4.3l3.4 3.3-0.7 0.6zm-13.8-4.7v-0.9h4.4v0.9zm-1.2 4.9v-0.8h5.7v0.8zm1.3 4.9v-0.8h4.5v0.8z"/><text style="transform:matrix(1,0,0,1,4.929,6.983)" ><tspan x="-1.7" y="0" class="d">4
</tspan></text></svg>