<svg width="65" height="64" viewBox="0 0 65 64" fill="none" xmlns="http://www.w3.org/2000/svg">
<g id="Responsive Suppport">
<path id="Vector" d="M32.3333 64C49.9853 64 64.3333 49.6372 64.3333 32C64.3333 14.3628 49.9853 0 32.3333 0C14.6812 0 0.333252 14.3628 0.333252 32C0.333252 39.3823 2.9379 46.6009 7.65604 52.3163L7.84953 52.5544L0.660694 61.5144C0.303485 61.9758 0.229066 62.586 0.496973 63.1219C0.76488 63.6726 1.27093 64 1.85139 64H32.3184H32.3333ZM11.0346 53.4623C11.5109 52.867 11.4812 52.0335 10.9751 51.4679C6.09325 46.1098 3.3993 39.1888 3.3993 32C3.3993 16.0447 16.3779 3.06605 32.3333 3.06605C48.2886 3.06605 61.2672 16.0447 61.2672 32C61.2672 47.9553 48.2886 60.934 32.3333 60.934H5.05139L11.0346 53.4623Z" fill="white"/>
<path id="Vector_2" d="M46.562 42.1058H47.5741C51.2206 42.1058 54.1825 39.144 54.1825 35.4975C54.1825 32.5803 52.203 29.9756 49.3751 29.1719L49.1072 29.0975V27.8919C49.1072 18.6491 41.5909 11.1328 32.3481 11.1328C23.1053 11.1328 15.589 18.6491 15.589 27.8919V29.0975L15.3211 29.1719C12.4932 29.9756 10.5137 32.5803 10.5137 35.4975C10.5137 39.144 13.4755 42.1058 17.122 42.1058H22.1974C23.0458 42.1058 23.7304 41.4212 23.7304 40.5728V30.4221C23.7304 29.5737 23.0458 28.8891 22.1974 28.8891H18.6551V27.877C18.6551 20.3161 24.802 14.1691 32.363 14.1691C39.9239 14.1691 46.0709 20.3161 46.0709 27.877V28.8891H42.5286C41.6802 28.8891 40.9955 29.5737 40.9955 30.4221V40.5728C40.9955 41.4212 41.6802 42.1058 42.5286 42.1058H43.5406V45.6482C43.5406 46.1989 43.0793 46.6603 42.5286 46.6603H36.8281L36.7388 46.4221C36.0095 44.6361 34.2979 43.4751 32.3779 43.4751C29.7881 43.4751 27.6746 45.5886 27.6746 48.1784C27.6746 50.7682 29.7881 52.8816 32.3779 52.8816C34.2979 52.8816 36.0095 51.7207 36.7388 49.9347L36.8281 49.6965H42.5286C44.776 49.6965 46.6067 47.8658 46.6067 45.6184V42.0761L46.562 42.1058ZM20.6495 31.9551V39.0398H17.1072C15.1574 39.0398 13.5648 37.4472 13.5648 35.4975C13.5648 33.5477 15.1574 31.9551 17.1072 31.9551H20.6495ZM32.3332 49.8305C31.4253 49.8305 30.696 49.1012 30.696 48.1933C30.696 47.2854 31.4402 46.5561 32.3332 46.5561C33.2262 46.5561 33.9704 47.2854 33.9704 48.1933C33.9704 49.1012 33.2411 49.8305 32.3332 49.8305ZM44.0169 39.0398V31.9551H47.5593C49.509 31.9551 51.1016 33.5477 51.1016 35.4975C51.1016 37.4472 49.509 39.0398 47.5593 39.0398H44.0169Z" fill="white"/>
</g>
</svg>
