<svg width="33" height="32" viewBox="0 0 33 32" fill="none" xmlns="http://www.w3.org/2000/svg">
<g id="Graphic_Elements" clip-path="url(#clip0_1052_407)">
<path id="Vector" d="M16.5 0C7.38711 0 0 7.16326 0 16C0 24.8367 7.38711 32 16.5 32C25.6129 32 33 24.8367 33 16C33 7.16326 25.6129 0 16.5 0ZM11.0538 24.7419C9.88044 24.7301 8.70711 24.7324 7.53133 24.7419C7.34311 24.7419 7.28689 24.6969 7.28689 24.5096C7.29178 20.4539 7.29178 16.3982 7.28689 12.3401C7.28689 12.1719 7.32844 12.1126 7.51178 12.1126C8.70222 12.1197 9.89267 12.1221 11.0831 12.1126C11.3129 12.1126 11.3422 12.1956 11.3422 12.3876C11.3373 14.4071 11.3398 16.4267 11.3398 18.4462C11.3398 20.4658 11.3373 22.4521 11.3447 24.4551C11.3447 24.6779 11.2884 24.7443 11.0513 24.7419H11.0538ZM9.32067 10.3751C8.04222 10.3751 6.98133 9.35111 6.97644 8.11141C6.97156 6.85985 8.03244 5.82874 9.32556 5.82874C10.6089 5.82874 11.6649 6.85037 11.6673 8.09007C11.6673 9.34874 10.6162 10.3727 9.32067 10.3727V10.3751ZM26.5296 24.4812C26.5296 24.6874 26.4709 24.7419 26.2607 24.7419C25.0873 24.7324 23.9116 24.7324 22.7382 24.7419C22.5304 24.7419 22.4864 24.6827 22.4864 24.493C22.4938 22.3905 22.4938 20.288 22.4864 18.1831C22.4864 17.6569 22.4498 17.1283 22.2982 16.6163C22.0171 15.6729 21.3204 15.1917 20.3011 15.2439C18.9078 15.315 18.1842 15.9834 18.0058 17.3559C17.9642 17.683 17.9422 18.0124 17.9447 18.3419C17.9447 20.3876 17.9447 22.4332 17.9496 24.4788C17.9496 24.6827 17.8982 24.7419 17.6831 24.7419C16.5 24.7324 15.3169 24.7324 14.1338 24.7419C13.9431 24.7419 13.8893 24.6945 13.8893 24.5073C13.8942 20.4587 13.8942 16.4077 13.8893 12.3591C13.8893 12.1576 13.9578 12.1126 14.1533 12.1126C15.2753 12.1197 16.3998 12.1221 17.5218 12.1126C17.7296 12.1126 17.7809 12.1766 17.7784 12.3662C17.7662 12.8498 17.7736 13.3333 17.7736 13.8193C18.0449 13.523 18.2673 13.2243 18.546 12.9707C19.4016 12.1884 20.4136 11.795 21.5967 11.8044C22.2469 11.8092 22.8873 11.8542 23.5131 12.0296C24.9456 12.4302 25.7767 13.3879 26.1751 14.7437C26.4733 15.7606 26.5271 16.8059 26.5296 17.8536C26.5344 20.0628 26.5222 22.2744 26.5296 24.4836V24.4812Z" fill="#F7F6F5"/>
</g>
<defs>
<clipPath id="clip0_1052_407">
<rect width="33" height="32" fill="white"/>
</clipPath>
</defs>
</svg>
