<svg width="64" height="64" viewBox="0 0 64 64" fill="none" xmlns="http://www.w3.org/2000/svg">
<g id="Klaim Eligible">
<path id="Vector" d="M15.6496 7.53679L11.9688 11.2175L10.792 10.0407C10.0659 9.31457 8.864 9.31457 8.13786 10.0407C7.41173 10.7668 7.41173 11.9687 8.13786 12.6948L10.6418 15.1988C11.3679 15.9249 12.5698 15.9249 13.2959 15.1988L18.3037 10.1909C19.0299 9.4648 19.0299 8.26292 18.3037 7.53679C17.5776 6.81065 16.3757 6.81065 15.6496 7.53679Z" fill="#6135FB"/>
<path id="Vector_2" d="M54.5352 9.48975H24.4883C23.4617 9.48975 22.6104 10.3411 22.6104 11.3677C22.6104 12.3943 23.4617 13.2456 24.4883 13.2456H54.5352C55.5618 13.2456 56.4132 12.3943 56.4132 11.3677C56.4132 10.3411 55.5618 9.48975 54.5352 9.48975Z" fill="#6135FB"/>
<path id="Vector_3" d="M15.6496 17.4274L11.9688 21.1082L10.792 19.9313C10.0659 19.2052 8.864 19.2052 8.13786 19.9313C7.41173 20.6575 7.41173 21.8593 8.13786 22.5855L10.6418 25.0894C11.3679 25.8155 12.5698 25.8155 13.2959 25.0894L18.3037 20.0816C19.0299 19.3554 19.0299 18.1535 18.3037 17.4274C17.5776 16.7013 16.3757 16.7013 15.6496 17.4274Z" fill="#6135FB"/>
<path id="Vector_4" d="M54.5352 19.3804H24.4883C23.4617 19.3804 22.6104 20.2317 22.6104 21.2583C22.6104 22.2849 23.4617 23.1362 24.4883 23.1362H54.5352C55.5618 23.1362 56.4132 22.2849 56.4132 21.2583C56.4132 20.2317 55.5618 19.3804 54.5352 19.3804Z" fill="#6135FB"/>
<path id="Vector_5" d="M15.6496 27.3176L11.9688 30.9983L10.792 29.8215C10.0659 29.0953 8.864 29.0953 8.13786 29.8215C7.41173 30.5476 7.41173 31.7495 8.13786 32.4756L10.6418 34.9795C11.3679 35.7057 12.5698 35.7057 13.2959 34.9795L18.3037 29.9717C19.0299 29.2456 19.0299 28.0437 18.3037 27.3176C17.5776 26.5914 16.3757 26.5914 15.6496 27.3176Z" fill="#6135FB"/>
<path id="Vector_6" d="M54.5352 29.2705H24.4883C23.4617 29.2705 22.6104 30.1218 22.6104 31.1484C22.6104 32.175 23.4617 33.0264 24.4883 33.0264H54.5352C55.5618 33.0264 56.4132 32.175 56.4132 31.1484C56.4132 30.1218 55.5618 29.2705 54.5352 29.2705Z" fill="#6135FB"/>
<path id="Vector_7" d="M15.6496 37.2082L11.9688 40.8889L10.792 39.7121C10.0659 38.986 8.864 38.986 8.13786 39.7121C7.41173 40.4382 7.41173 41.6401 8.13786 42.3662L10.6418 44.8701C11.3679 45.5963 12.5698 45.5963 13.2959 44.8701L18.3037 39.8623C19.0299 39.1362 19.0299 37.9343 18.3037 37.2082C17.5776 36.482 16.3757 36.482 15.6496 37.2082Z" fill="#6135FB"/>
<path id="Vector_8" d="M54.5352 39.1611H24.4883C23.4617 39.1611 22.6104 40.0125 22.6104 41.0391C22.6104 42.0657 23.4617 42.917 24.4883 42.917H54.5352C55.5618 42.917 56.4132 42.0657 56.4132 41.0391C56.4132 40.0125 55.5618 39.1611 54.5352 39.1611Z" fill="#6135FB"/>
<path id="Vector_9" d="M60.82 0H3.17997L0 3.17997V48.1002L3.17997 51.2801H22.1095L20.4319 60.144H9.46479V63.8998H54.5352V60.144H43.543L41.8654 51.2801H60.795L63.975 48.1002V3.17997L60.795 0H60.82ZM39.7121 60.169H24.288L25.9656 51.3052H38.0595L39.7371 60.169H39.7121ZM60.2441 46.5477L59.2676 47.5243H4.73239L3.75587 46.5477V4.73239L4.73239 3.75587H59.2676L60.2441 4.73239V46.5477Z" fill="#6135FB"/>
</g>
</svg>
