<svg width="32" height="32" viewBox="0 0 32 32" fill="none" xmlns="http://www.w3.org/2000/svg">
<g id="Graphic_Elements" clip-path="url(#clip0_1052_409)">
<path id="Vector" d="M16.519 7.23926C11.866 7.23926 8.0805 11.0224 8.07812 15.673C8.07812 17.2659 8.52375 18.8185 9.36761 20.1601L9.56909 20.4801L8.71575 23.5924L11.9086 22.7557L12.2168 22.9382C13.511 23.7062 14.9972 24.1139 16.5095 24.1139H16.5119C21.1626 24.1139 24.9457 20.3308 24.948 15.6801C24.948 13.4259 24.0734 11.3068 22.4805 9.71392C20.8876 8.11866 18.7685 7.24163 16.5166 7.24163L16.519 7.23926ZM21.4802 19.2973C21.2692 19.8899 20.2547 20.4304 19.7688 20.5038C19.3326 20.5702 18.778 20.5963 18.1712 20.4043C17.8038 20.2881 17.3297 20.1317 16.7252 19.871C14.1818 18.7735 12.5202 16.2111 12.3922 16.0428C12.2642 15.8745 11.3563 14.668 11.3563 13.4212C11.3563 12.1744 12.0106 11.5604 12.2429 11.3068C12.4752 11.0532 12.7501 10.9892 12.9184 10.9892C13.0867 10.9892 13.2574 10.9892 13.4043 10.9987C13.5608 11.0058 13.7694 10.9394 13.9756 11.4348C14.1866 11.9421 14.6938 13.1913 14.7578 13.3169C14.8218 13.4425 14.8645 13.5918 14.7792 13.7601C14.6938 13.9284 14.6535 14.0351 14.5255 14.1821C14.3999 14.329 14.2601 14.5116 14.1463 14.6253C14.0183 14.751 13.8879 14.8884 14.0349 15.1421C14.1818 15.3957 14.6915 16.2253 15.4452 16.8985C16.4147 17.7613 17.2301 18.0292 17.4838 18.1572C17.7374 18.2852 17.8843 18.2639 18.0337 18.0932C18.1806 17.9249 18.6666 17.3536 18.8372 17.1C19.0055 16.8464 19.1762 16.889 19.4085 16.972C19.6408 17.0573 20.8876 17.6689 21.1412 17.7969C21.3949 17.9249 21.5632 17.9865 21.6272 18.0932C21.6912 18.1999 21.6912 18.7071 21.4802 19.2997V19.2973Z" fill="#F7F6F5"/>
<path id="Vector_2" d="M16 0C7.16326 0 0 7.16326 0 16C0 24.8367 7.16326 32 16 32C24.8367 32 32 24.8367 32 16C32 7.16326 24.8367 0 16 0ZM16.5167 25.8252H16.512C14.8124 25.8252 13.1437 25.3985 11.6622 24.5902L6.28148 26.0006L7.7203 20.7431C6.83141 19.2047 6.36444 17.4578 6.36444 15.6705C6.36444 10.0764 10.9203 5.52533 16.5144 5.52533C19.2284 5.52533 21.779 6.58252 23.6942 8.50015C25.6095 10.4178 26.6643 12.9683 26.6643 15.6776C26.6643 21.2717 22.1084 25.8252 16.5144 25.8252H16.5167Z" fill="#F7F6F5"/>
</g>
<defs>
<clipPath id="clip0_1052_409">
<rect width="32" height="32" fill="white"/>
</clipPath>
</defs>
</svg>
